<?xml version="1.0" encoding="UTF-8" standalone="no"?>
<!DOCTYPE svg PUBLIC "-//W3C//DTD SVG 1.1//EN"
 "http://www.w3.org/Graphics/SVG/1.1/DTD/svg11.dtd">
<!-- Generated by graphviz version 2.40.1 (20161225.0304)
 -->
<!-- Title: G Pages: 1 -->
<svg width="337pt" height="1090pt"
 viewBox="0.00 0.00 336.69 1090.00" xmlns="http://www.w3.org/2000/svg" xmlns:xlink="http://www.w3.org/1999/xlink">
<g id="graph0" class="graph" transform="scale(1 1) rotate(0) translate(4 1086)">
<title>G</title>
<polygon fill="#ffffff" stroke="transparent" points="-4,4 -4,-1086 332.694,-1086 332.694,4 -4,4"/>
<!-- A0 -->
<g id="node1" class="node">
<title>A0</title>
<ellipse fill="none" stroke="#000000" cx="160.229" cy="-1071" rx="11" ry="11"/>
</g>
<!-- A1 -->
<g id="node2" class="node">
<title>A1</title>
<path fill="none" stroke="#000000" d="M213.4742,-1023C213.4742,-1023 106.9838,-1023 106.9838,-1023 100.9838,-1023 94.9838,-1017 94.9838,-1011 94.9838,-1011 94.9838,-999 94.9838,-999 94.9838,-993 100.9838,-987 106.9838,-987 106.9838,-987 213.4742,-987 213.4742,-987 219.4742,-987 225.4742,-993 225.4742,-999 225.4742,-999 225.4742,-1011 225.4742,-1011 225.4742,-1017 219.4742,-1023 213.4742,-1023"/>
<text text-anchor="middle" x="160.229" y="-1002" font-family="Helvetica,sans-Serif" font-size="10.00" fill="#000000">masuk_ke_menu_awal</text>
</g>
<!-- A0&#45;&gt;A1 -->
<g id="edge1" class="edge">
<title>A0&#45;&gt;A1</title>
<path fill="none" stroke="#000000" d="M160.229,-1059.804C160.229,-1052.5358 160.229,-1042.7135 160.229,-1033.3916"/>
<polygon fill="#000000" stroke="#000000" points="160.229,-1023.2423 164.7291,-1033.2423 160.229,-1028.2423 160.2291,-1033.2423 160.2291,-1033.2423 160.2291,-1033.2423 160.229,-1028.2423 155.7291,-1033.2424 160.229,-1023.2423 160.229,-1023.2423"/>
</g>
<!-- A2 -->
<g id="node3" class="node">
<title>A2</title>
<polygon fill="none" stroke="#000000" points="160.229,-950 142.229,-932 160.229,-914 178.229,-932 160.229,-950"/>
</g>
<!-- A1&#45;&gt;A2 -->
<g id="edge2" class="edge">
<title>A1&#45;&gt;A2</title>
<path fill="none" stroke="#000000" d="M160.229,-986.9551C160.229,-978.8828 160.229,-969.1764 160.229,-960.1817"/>
<polygon fill="#000000" stroke="#000000" points="160.229,-950.0904 164.7291,-960.0903 160.229,-955.0904 160.2291,-960.0904 160.2291,-960.0904 160.2291,-960.0904 160.229,-955.0904 155.7291,-960.0904 160.229,-950.0904 160.229,-950.0904"/>
</g>
<!-- A3 -->
<g id="node4" class="node">
<title>A3</title>
<path fill="none" stroke="#000000" d="M146.5134,-866C146.5134,-866 109.9446,-866 109.9446,-866 103.9446,-866 97.9446,-860 97.9446,-854 97.9446,-854 97.9446,-842 97.9446,-842 97.9446,-836 103.9446,-830 109.9446,-830 109.9446,-830 146.5134,-830 146.5134,-830 152.5134,-830 158.5134,-836 158.5134,-842 158.5134,-842 158.5134,-854 158.5134,-854 158.5134,-860 152.5134,-866 146.5134,-866"/>
<text text-anchor="middle" x="128.229" y="-845" font-family="Helvetica,sans-Serif" font-size="10.00" fill="#000000">SignUp</text>
</g>
<!-- A2&#45;&gt;A3 -->
<g id="edge3" class="edge">
<title>A2&#45;&gt;A3</title>
<path fill="none" stroke="#000000" d="M149.0842,-924.6379C140.4813,-918.2303 129.2291,-908.0866 124.222,-896 121.7016,-889.9161 121.111,-883.033 121.5015,-876.4182"/>
<polygon fill="#000000" stroke="#000000" points="122.7862,-866.3977 125.9779,-876.8888 122.1503,-871.3571 121.5144,-876.3165 121.5144,-876.3165 121.5144,-876.3165 122.1503,-871.3571 117.0509,-875.7442 122.7862,-866.3977 122.7862,-866.3977"/>
<text text-anchor="middle" x="154.2325" y="-887" font-family="Helvetica,sans-Serif" font-size="10.00" fill="#000000">[belumDaftar]</text>
</g>
<!-- A4 -->
<g id="node5" class="node">
<title>A4</title>
<path fill="none" stroke="#000000" d="M178.229,-793C178.229,-793 148.229,-793 148.229,-793 142.229,-793 136.229,-787 136.229,-781 136.229,-781 136.229,-769 136.229,-769 136.229,-763 142.229,-757 148.229,-757 148.229,-757 178.229,-757 178.229,-757 184.229,-757 190.229,-763 190.229,-769 190.229,-769 190.229,-781 190.229,-781 190.229,-787 184.229,-793 178.229,-793"/>
<text text-anchor="middle" x="163.229" y="-772" font-family="Helvetica,sans-Serif" font-size="10.00" fill="#000000">Login</text>
</g>
<!-- A2&#45;&gt;A4 -->
<g id="edge5" class="edge">
<title>A2&#45;&gt;A4</title>
<path fill="none" stroke="#000000" d="M168.911,-922.4287C174.4857,-915.6073 181.2251,-905.9212 184.229,-896 193.6777,-864.793 184.3433,-827.6903 175.2952,-802.8726"/>
<polygon fill="#000000" stroke="#000000" points="171.6215,-793.3618 179.4225,-801.0686 173.4232,-798.0259 175.2248,-802.6901 175.2248,-802.6901 175.2248,-802.6901 173.4232,-798.0259 171.027,-804.3115 171.6215,-793.3618 171.6215,-793.3618"/>
<text text-anchor="middle" x="218.0725" y="-845" font-family="Helvetica,sans-Serif" font-size="10.00" fill="#000000">[SudahDaftar]</text>
</g>
<!-- A3&#45;&gt;A4 -->
<g id="edge4" class="edge">
<title>A3&#45;&gt;A4</title>
<path fill="none" stroke="#000000" d="M136.8807,-829.9551C140.8771,-821.6196 145.7091,-811.5416 150.138,-802.3042"/>
<polygon fill="#000000" stroke="#000000" points="154.5555,-793.0904 154.2899,-804.053 152.3939,-797.5989 150.2322,-802.1075 150.2322,-802.1075 150.2322,-802.1075 152.3939,-797.5989 146.1745,-800.162 154.5555,-793.0904 154.5555,-793.0904"/>
</g>
<!-- A5 -->
<g id="node6" class="node">
<title>A5</title>
<path fill="none" stroke="#000000" d="M205.245,-720C205.245,-720 121.213,-720 121.213,-720 115.213,-720 109.213,-714 109.213,-708 109.213,-708 109.213,-696 109.213,-696 109.213,-690 115.213,-684 121.213,-684 121.213,-684 205.245,-684 205.245,-684 211.245,-684 217.245,-690 217.245,-696 217.245,-696 217.245,-708 217.245,-708 217.245,-714 211.245,-720 205.245,-720"/>
<text text-anchor="middle" x="163.229" y="-699" font-family="Helvetica,sans-Serif" font-size="10.00" fill="#000000">MenampilkanPeta</text>
</g>
<!-- A4&#45;&gt;A5 -->
<g id="edge6" class="edge">
<title>A4&#45;&gt;A5</title>
<path fill="none" stroke="#000000" d="M163.229,-756.9551C163.229,-748.8828 163.229,-739.1764 163.229,-730.1817"/>
<polygon fill="#000000" stroke="#000000" points="163.229,-720.0904 167.7291,-730.0903 163.229,-725.0904 163.2291,-730.0904 163.2291,-730.0904 163.2291,-730.0904 163.229,-725.0904 158.7291,-730.0904 163.229,-720.0904 163.229,-720.0904"/>
</g>
<!-- A6 -->
<g id="node7" class="node">
<title>A6</title>
<path fill="none" stroke="#000000" d="M192.7792,-647C192.7792,-647 133.6788,-647 133.6788,-647 127.6788,-647 121.6788,-641 121.6788,-635 121.6788,-635 121.6788,-623 121.6788,-623 121.6788,-617 127.6788,-611 133.6788,-611 133.6788,-611 192.7792,-611 192.7792,-611 198.7792,-611 204.7792,-617 204.7792,-623 204.7792,-623 204.7792,-635 204.7792,-635 204.7792,-641 198.7792,-647 192.7792,-647"/>
<text text-anchor="middle" x="163.229" y="-626" font-family="Helvetica,sans-Serif" font-size="10.00" fill="#000000">MemilihRute</text>
</g>
<!-- A5&#45;&gt;A6 -->
<g id="edge7" class="edge">
<title>A5&#45;&gt;A6</title>
<path fill="none" stroke="#000000" d="M163.229,-683.9551C163.229,-675.8828 163.229,-666.1764 163.229,-657.1817"/>
<polygon fill="#000000" stroke="#000000" points="163.229,-647.0904 167.7291,-657.0903 163.229,-652.0904 163.2291,-657.0904 163.2291,-657.0904 163.2291,-657.0904 163.229,-652.0904 158.7291,-657.0904 163.229,-647.0904 163.229,-647.0904"/>
</g>
<!-- A7 -->
<g id="node8" class="node">
<title>A7</title>
<path fill="none" stroke="#000000" d="M213.4134,-574C213.4134,-574 113.0446,-574 113.0446,-574 107.0446,-574 101.0446,-568 101.0446,-562 101.0446,-562 101.0446,-550 101.0446,-550 101.0446,-544 107.0446,-538 113.0446,-538 113.0446,-538 213.4134,-538 213.4134,-538 219.4134,-538 225.4134,-544 225.4134,-550 225.4134,-550 225.4134,-562 225.4134,-562 225.4134,-568 219.4134,-574 213.4134,-574"/>
<text text-anchor="middle" x="163.229" y="-553" font-family="Helvetica,sans-Serif" font-size="10.00" fill="#000000">HalamanPembayaran</text>
</g>
<!-- A6&#45;&gt;A7 -->
<g id="edge8" class="edge">
<title>A6&#45;&gt;A7</title>
<path fill="none" stroke="#000000" d="M163.229,-610.9551C163.229,-602.8828 163.229,-593.1764 163.229,-584.1817"/>
<polygon fill="#000000" stroke="#000000" points="163.229,-574.0904 167.7291,-584.0903 163.229,-579.0904 163.2291,-584.0904 163.2291,-584.0904 163.2291,-584.0904 163.229,-579.0904 158.7291,-584.0904 163.229,-574.0904 163.229,-574.0904"/>
</g>
<!-- A8 -->
<g id="node9" class="node">
<title>A8</title>
<polygon fill="none" stroke="#000000" points="63.229,-501 45.229,-483 63.229,-465 81.229,-483 63.229,-501"/>
</g>
<!-- A7&#45;&gt;A8 -->
<g id="edge9" class="edge">
<title>A7&#45;&gt;A8</title>
<path fill="none" stroke="#000000" d="M138.5099,-537.9551C121.1044,-525.249 98.1523,-508.494 82.1869,-496.8393"/>
<polygon fill="#000000" stroke="#000000" points="73.6888,-490.6357 84.419,-492.8972 77.7273,-493.5838 81.7657,-496.5318 81.7657,-496.5318 81.7657,-496.5318 77.7273,-493.5838 79.1125,-500.1664 73.6888,-490.6357 73.6888,-490.6357"/>
</g>
<!-- A9 -->
<g id="node10" class="node">
<title>A9</title>
<path fill="none" stroke="#000000" d="M75.73,-249C75.73,-249 16.728,-249 16.728,-249 10.728,-249 4.728,-243 4.728,-237 4.728,-237 4.728,-225 4.728,-225 4.728,-219 10.728,-213 16.728,-213 16.728,-213 75.73,-213 75.73,-213 81.73,-213 87.73,-219 87.73,-225 87.73,-225 87.73,-237 87.73,-237 87.73,-243 81.73,-249 75.73,-249"/>
<text text-anchor="middle" x="46.229" y="-228" font-family="Helvetica,sans-Serif" font-size="10.00" fill="#000000">PesanDriver</text>
</g>
<!-- A8&#45;&gt;A9 -->
<g id="edge10" class="edge">
<title>A8&#45;&gt;A9</title>
<path fill="none" stroke="#000000" d="M58.1853,-469.9433C50.076,-448.1758 34.4819,-402.9151 28.882,-363 23.8641,-327.2333 31.4348,-285.9506 38.0958,-259.211"/>
<polygon fill="#000000" stroke="#000000" points="40.6688,-249.3782 42.4907,-260.1917 39.403,-254.2154 38.1373,-259.0525 38.1373,-259.0525 38.1373,-259.0525 39.403,-254.2154 33.7838,-257.9133 40.6688,-249.3782 40.6688,-249.3782"/>
<text text-anchor="middle" x="88.4025" y="-354" font-family="Helvetica,sans-Serif" font-size="10.00" fill="#000000">[MemilihPembayarantunai]</text>
</g>
<!-- A10 -->
<g id="node11" class="node">
<title>A10</title>
<path fill="none" stroke="#000000" d="M189.5222,-417C189.5222,-417 92.9358,-417 92.9358,-417 86.9358,-417 80.9358,-411 80.9358,-405 80.9358,-405 80.9358,-393 80.9358,-393 80.9358,-387 86.9358,-381 92.9358,-381 92.9358,-381 189.5222,-381 189.5222,-381 195.5222,-381 201.5222,-387 201.5222,-393 201.5222,-393 201.5222,-405 201.5222,-405 201.5222,-411 195.5222,-417 189.5222,-417"/>
<text text-anchor="middle" x="141.229" y="-396" font-family="Helvetica,sans-Serif" font-size="10.00" fill="#000000">ValidasiJumlahSaldo</text>
</g>
<!-- A8&#45;&gt;A10 -->
<g id="edge11" class="edge">
<title>A8&#45;&gt;A10</title>
<path fill="none" stroke="#000000" d="M59.81,-468.3833C58.2803,-458.2098 58.0385,-444.7703 64.421,-435 67.3167,-430.5673 70.914,-426.6696 74.9588,-423.2441"/>
<polygon fill="#000000" stroke="#000000" points="83.2217,-417.222 77.7906,-426.7485 79.1809,-420.1669 75.1402,-423.1119 75.1402,-423.1119 75.1402,-423.1119 79.1809,-420.1669 72.4898,-419.4752 83.2217,-417.222 83.2217,-417.222"/>
<text text-anchor="middle" x="154.133" y="-438" font-family="Helvetica,sans-Serif" font-size="10.00" fill="#000000">[MemilihPembayaranDenganSaldoOjek]</text>
</g>
<!-- A12 -->
<g id="node13" class="node">
<title>A12</title>
<path fill="none" stroke="#000000" d="M64.4524,-176C64.4524,-176 28.0056,-176 28.0056,-176 22.0056,-176 16.0056,-170 16.0056,-164 16.0056,-164 16.0056,-152 16.0056,-152 16.0056,-146 22.0056,-140 28.0056,-140 28.0056,-140 64.4524,-140 64.4524,-140 70.4524,-140 76.4524,-146 76.4524,-152 76.4524,-152 76.4524,-164 76.4524,-164 76.4524,-170 70.4524,-176 64.4524,-176"/>
<text text-anchor="middle" x="46.229" y="-155" font-family="Helvetica,sans-Serif" font-size="10.00" fill="#000000">Diantar</text>
</g>
<!-- A9&#45;&gt;A12 -->
<g id="edge15" class="edge">
<title>A9&#45;&gt;A12</title>
<path fill="none" stroke="#000000" d="M46.229,-212.9551C46.229,-204.8828 46.229,-195.1764 46.229,-186.1817"/>
<polygon fill="#000000" stroke="#000000" points="46.229,-176.0904 50.7291,-186.0903 46.229,-181.0904 46.2291,-186.0904 46.2291,-186.0904 46.2291,-186.0904 46.229,-181.0904 41.7291,-186.0904 46.229,-176.0904 46.229,-176.0904"/>
</g>
<!-- A11 -->
<g id="node12" class="node">
<title>A11</title>
<polygon fill="none" stroke="#000000" points="163.229,-333 145.229,-315 163.229,-297 181.229,-315 163.229,-333"/>
</g>
<!-- A10&#45;&gt;A11 -->
<g id="edge12" class="edge">
<title>A10&#45;&gt;A11</title>
<path fill="none" stroke="#000000" d="M146.0027,-380.7733C149.1936,-368.5896 153.4269,-352.4263 156.8983,-339.1717"/>
<polygon fill="#000000" stroke="#000000" points="159.4845,-329.297 161.304,-340.1109 158.2177,-334.1339 156.9509,-338.9708 156.9509,-338.9708 156.9509,-338.9708 158.2177,-334.1339 152.5977,-337.8306 159.4845,-329.297 159.4845,-329.297"/>
</g>
<!-- A11&#45;&gt;A7 -->
<g id="edge13" class="edge">
<title>A11&#45;&gt;A7</title>
<path fill="none" stroke="#000000" d="M173.7636,-322.7113C198.8907,-342.1243 259.0351,-395.1738 242.229,-447 231.8092,-479.1323 207.973,-509.7265 189.1914,-530.2769"/>
<polygon fill="#000000" stroke="#000000" points="182.2792,-537.6435 185.8402,-527.2719 185.7005,-533.9973 189.1218,-530.3511 189.1218,-530.3511 189.1218,-530.3511 185.7005,-533.9973 192.4034,-533.4303 182.2792,-537.6435 182.2792,-537.6435"/>
<text text-anchor="middle" x="286.4615" y="-438" font-family="Helvetica,sans-Serif" font-size="10.00" fill="#000000">[SaldoTidakCukup]</text>
</g>
<!-- A11&#45;&gt;A9 -->
<g id="edge14" class="edge">
<title>A11&#45;&gt;A9</title>
<path fill="none" stroke="#000000" d="M152.4316,-307.248C136.137,-295.5493 104.564,-272.8815 80.0603,-255.2891"/>
<polygon fill="#000000" stroke="#000000" points="71.7245,-249.3044 82.4722,-251.4811 75.7861,-252.2205 79.8477,-255.1365 79.8477,-255.1365 79.8477,-255.1365 75.7861,-252.2205 77.2233,-258.792 71.7245,-249.3044 71.7245,-249.3044"/>
<text text-anchor="middle" x="142.2385" y="-270" font-family="Helvetica,sans-Serif" font-size="10.00" fill="#000000">[SaldoCukup]</text>
</g>
<!-- A13 -->
<g id="node14" class="node">
<title>A13</title>
<path fill="none" stroke="#000000" d="M80.6881,-103C80.6881,-103 11.7699,-103 11.7699,-103 5.7699,-103 -.2301,-97 -.2301,-91 -.2301,-91 -.2301,-79 -.2301,-79 -.2301,-73 5.7699,-67 11.7699,-67 11.7699,-67 80.6881,-67 80.6881,-67 86.6881,-67 92.6881,-73 92.6881,-79 92.6881,-79 92.6881,-91 92.6881,-91 92.6881,-97 86.6881,-103 80.6881,-103"/>
<text text-anchor="middle" x="46.229" y="-82" font-family="Helvetica,sans-Serif" font-size="10.00" fill="#000000">SampaiTujuan</text>
</g>
<!-- A12&#45;&gt;A13 -->
<g id="edge16" class="edge">
<title>A12&#45;&gt;A13</title>
<path fill="none" stroke="#000000" d="M46.229,-139.9551C46.229,-131.8828 46.229,-122.1764 46.229,-113.1817"/>
<polygon fill="#000000" stroke="#000000" points="46.229,-103.0904 50.7291,-113.0903 46.229,-108.0904 46.2291,-113.0904 46.2291,-113.0904 46.2291,-113.0904 46.229,-108.0904 41.7291,-113.0904 46.229,-103.0904 46.229,-103.0904"/>
</g>
<!-- A14 -->
<g id="node15" class="node">
<title>A14</title>
<ellipse fill="none" stroke="#000000" cx="46.229" cy="-15" rx="11" ry="11"/>
<ellipse fill="none" stroke="#000000" cx="46.229" cy="-15" rx="15" ry="15"/>
</g>
<!-- A13&#45;&gt;A14 -->
<g id="edge17" class="edge">
<title>A13&#45;&gt;A14</title>
<path fill="none" stroke="#000000" d="M46.229,-66.9733C46.229,-58.9095 46.229,-49.2597 46.229,-40.4761"/>
<polygon fill="#000000" stroke="#000000" points="46.229,-30.3564 50.7291,-40.3563 46.229,-35.3564 46.2291,-40.3564 46.2291,-40.3564 46.2291,-40.3564 46.229,-35.3564 41.7291,-40.3564 46.229,-30.3564 46.229,-30.3564"/>
</g>
</g>
</svg>
