<?xml version="1.0" encoding="UTF-8" standalone="no"?>
<!DOCTYPE svg PUBLIC "-//W3C//DTD SVG 1.1//EN"
 "http://www.w3.org/Graphics/SVG/1.1/DTD/svg11.dtd">
<!-- Generated by graphviz version 2.40.1 (20161225.0304)
 -->
<!-- Title: G Pages: 1 -->
<svg width="355pt" height="1090pt"
 viewBox="0.00 0.00 354.64 1090.00" xmlns="http://www.w3.org/2000/svg" xmlns:xlink="http://www.w3.org/1999/xlink">
<g id="graph0" class="graph" transform="scale(1 1) rotate(0) translate(4 1086)">
<title>G</title>
<polygon fill="#ffffff" stroke="transparent" points="-4,4 -4,-1086 350.6415,-1086 350.6415,4 -4,4"/>
<!-- A0 -->
<g id="node1" class="node">
<title>A0</title>
<ellipse fill="none" stroke="#000000" cx="168.6185" cy="-1071" rx="11" ry="11"/>
</g>
<!-- A1 -->
<g id="node2" class="node">
<title>A1</title>
<path fill="none" stroke="#000000" d="M217.5235,-1023C217.5235,-1023 119.7135,-1023 119.7135,-1023 113.7135,-1023 107.7135,-1017 107.7135,-1011 107.7135,-1011 107.7135,-999 107.7135,-999 107.7135,-993 113.7135,-987 119.7135,-987 119.7135,-987 217.5235,-987 217.5235,-987 223.5235,-987 229.5235,-993 229.5235,-999 229.5235,-999 229.5235,-1011 229.5235,-1011 229.5235,-1017 223.5235,-1023 217.5235,-1023"/>
<text text-anchor="middle" x="168.6185" y="-1002" font-family="Helvetica,sans-Serif" font-size="10.00" fill="#000000">masuk ke menu awal</text>
</g>
<!-- A0&#45;&gt;A1 -->
<g id="edge1" class="edge">
<title>A0&#45;&gt;A1</title>
<path fill="none" stroke="#000000" d="M168.6185,-1059.804C168.6185,-1052.5358 168.6185,-1042.7135 168.6185,-1033.3916"/>
<polygon fill="#000000" stroke="#000000" points="168.6185,-1023.2423 173.1186,-1033.2423 168.6185,-1028.2423 168.6186,-1033.2423 168.6186,-1033.2423 168.6186,-1033.2423 168.6185,-1028.2423 164.1186,-1033.2424 168.6185,-1023.2423 168.6185,-1023.2423"/>
</g>
<!-- A2 -->
<g id="node3" class="node">
<title>A2</title>
<polygon fill="none" stroke="#000000" points="168.6185,-950 150.6185,-932 168.6185,-914 186.6185,-932 168.6185,-950"/>
</g>
<!-- A1&#45;&gt;A2 -->
<g id="edge2" class="edge">
<title>A1&#45;&gt;A2</title>
<path fill="none" stroke="#000000" d="M168.6185,-986.9551C168.6185,-978.8828 168.6185,-969.1764 168.6185,-960.1817"/>
<polygon fill="#000000" stroke="#000000" points="168.6185,-950.0904 173.1186,-960.0903 168.6185,-955.0904 168.6186,-960.0904 168.6186,-960.0904 168.6186,-960.0904 168.6185,-955.0904 164.1186,-960.0904 168.6185,-950.0904 168.6185,-950.0904"/>
</g>
<!-- A3 -->
<g id="node4" class="node">
<title>A3</title>
<path fill="none" stroke="#000000" d="M154.183,-866C154.183,-866 115.054,-866 115.054,-866 109.054,-866 103.054,-860 103.054,-854 103.054,-854 103.054,-842 103.054,-842 103.054,-836 109.054,-830 115.054,-830 115.054,-830 154.183,-830 154.183,-830 160.183,-830 166.183,-836 166.183,-842 166.183,-842 166.183,-854 166.183,-854 166.183,-860 160.183,-866 154.183,-866"/>
<text text-anchor="middle" x="134.6185" y="-845" font-family="Helvetica,sans-Serif" font-size="10.00" fill="#000000">Sign Up</text>
</g>
<!-- A2&#45;&gt;A3 -->
<g id="edge3" class="edge">
<title>A2&#45;&gt;A3</title>
<path fill="none" stroke="#000000" d="M157.4941,-924.9738C148.5858,-918.63 136.7418,-908.402 131.4925,-896 128.9291,-889.9438 128.2386,-883.0714 128.5113,-876.458"/>
<polygon fill="#000000" stroke="#000000" points="129.6019,-866.4334 132.9939,-876.8615 129.0611,-871.4041 128.5203,-876.3748 128.5203,-876.3748 128.5203,-876.3748 129.0611,-871.4041 124.0467,-875.888 129.6019,-866.4334 129.6019,-866.4334"/>
<text text-anchor="middle" x="162.1815" y="-887" font-family="Helvetica,sans-Serif" font-size="10.00" fill="#000000">[belum daftar]</text>
</g>
<!-- A4 -->
<g id="node5" class="node">
<title>A4</title>
<path fill="none" stroke="#000000" d="M185.6185,-793C185.6185,-793 155.6185,-793 155.6185,-793 149.6185,-793 143.6185,-787 143.6185,-781 143.6185,-781 143.6185,-769 143.6185,-769 143.6185,-763 149.6185,-757 155.6185,-757 155.6185,-757 185.6185,-757 185.6185,-757 191.6185,-757 197.6185,-763 197.6185,-769 197.6185,-769 197.6185,-781 197.6185,-781 197.6185,-787 191.6185,-793 185.6185,-793"/>
<text text-anchor="middle" x="170.6185" y="-772" font-family="Helvetica,sans-Serif" font-size="10.00" fill="#000000">Login</text>
</g>
<!-- A2&#45;&gt;A4 -->
<g id="edge5" class="edge">
<title>A2&#45;&gt;A4</title>
<path fill="none" stroke="#000000" d="M177.3005,-922.4287C182.8752,-915.6073 189.6146,-905.9212 192.6185,-896 202.0807,-864.7485 192.3868,-827.6545 183.047,-802.851"/>
<polygon fill="#000000" stroke="#000000" points="179.2578,-793.3462 187.1412,-800.9688 181.1095,-797.9907 182.9611,-802.6352 182.9611,-802.6352 182.9611,-802.6352 181.1095,-797.9907 178.781,-804.3017 179.2578,-793.3462 179.2578,-793.3462"/>
<text text-anchor="middle" x="227.8515" y="-845" font-family="Helvetica,sans-Serif" font-size="10.00" fill="#000000">[Sudah Daftar]</text>
</g>
<!-- A3&#45;&gt;A4 -->
<g id="edge4" class="edge">
<title>A3&#45;&gt;A4</title>
<path fill="none" stroke="#000000" d="M143.5174,-829.9551C147.628,-821.6196 152.598,-811.5416 157.1534,-802.3042"/>
<polygon fill="#000000" stroke="#000000" points="161.6972,-793.0904 161.3102,-804.0494 159.4857,-797.5747 157.2742,-802.0591 157.2742,-802.0591 157.2742,-802.0591 159.4857,-797.5747 153.2383,-800.0687 161.6972,-793.0904 161.6972,-793.0904"/>
</g>
<!-- A5 -->
<g id="node6" class="node">
<title>A5</title>
<path fill="none" stroke="#000000" d="M213.9137,-720C213.9137,-720 127.3233,-720 127.3233,-720 121.3233,-720 115.3233,-714 115.3233,-708 115.3233,-708 115.3233,-696 115.3233,-696 115.3233,-690 121.3233,-684 127.3233,-684 127.3233,-684 213.9137,-684 213.9137,-684 219.9137,-684 225.9137,-690 225.9137,-696 225.9137,-696 225.9137,-708 225.9137,-708 225.9137,-714 219.9137,-720 213.9137,-720"/>
<text text-anchor="middle" x="170.6185" y="-699" font-family="Helvetica,sans-Serif" font-size="10.00" fill="#000000">Menampilkan Peta</text>
</g>
<!-- A4&#45;&gt;A5 -->
<g id="edge6" class="edge">
<title>A4&#45;&gt;A5</title>
<path fill="none" stroke="#000000" d="M170.6185,-756.9551C170.6185,-748.8828 170.6185,-739.1764 170.6185,-730.1817"/>
<polygon fill="#000000" stroke="#000000" points="170.6185,-720.0904 175.1186,-730.0903 170.6185,-725.0904 170.6186,-730.0904 170.6186,-730.0904 170.6186,-730.0904 170.6185,-725.0904 166.1186,-730.0904 170.6185,-720.0904 170.6185,-720.0904"/>
</g>
<!-- A6 -->
<g id="node7" class="node">
<title>A6</title>
<path fill="none" stroke="#000000" d="M201.9471,-647C201.9471,-647 139.2899,-647 139.2899,-647 133.2899,-647 127.2899,-641 127.2899,-635 127.2899,-635 127.2899,-623 127.2899,-623 127.2899,-617 133.2899,-611 139.2899,-611 139.2899,-611 201.9471,-611 201.9471,-611 207.9471,-611 213.9471,-617 213.9471,-623 213.9471,-623 213.9471,-635 213.9471,-635 213.9471,-641 207.9471,-647 201.9471,-647"/>
<text text-anchor="middle" x="170.6185" y="-626" font-family="Helvetica,sans-Serif" font-size="10.00" fill="#000000">Memilih Rute</text>
</g>
<!-- A5&#45;&gt;A6 -->
<g id="edge7" class="edge">
<title>A5&#45;&gt;A6</title>
<path fill="none" stroke="#000000" d="M170.6185,-683.9551C170.6185,-675.8828 170.6185,-666.1764 170.6185,-657.1817"/>
<polygon fill="#000000" stroke="#000000" points="170.6185,-647.0904 175.1186,-657.0903 170.6185,-652.0904 170.6186,-657.0904 170.6186,-657.0904 170.6186,-657.0904 170.6185,-652.0904 166.1186,-657.0904 170.6185,-647.0904 170.6185,-647.0904"/>
</g>
<!-- A7 -->
<g id="node8" class="node">
<title>A7</title>
<path fill="none" stroke="#000000" d="M222.5823,-574C222.5823,-574 118.6547,-574 118.6547,-574 112.6547,-574 106.6547,-568 106.6547,-562 106.6547,-562 106.6547,-550 106.6547,-550 106.6547,-544 112.6547,-538 118.6547,-538 118.6547,-538 222.5823,-538 222.5823,-538 228.5823,-538 234.5823,-544 234.5823,-550 234.5823,-550 234.5823,-562 234.5823,-562 234.5823,-568 228.5823,-574 222.5823,-574"/>
<text text-anchor="middle" x="170.6185" y="-553" font-family="Helvetica,sans-Serif" font-size="10.00" fill="#000000">Halaman Pembayaran</text>
</g>
<!-- A6&#45;&gt;A7 -->
<g id="edge8" class="edge">
<title>A6&#45;&gt;A7</title>
<path fill="none" stroke="#000000" d="M170.6185,-610.9551C170.6185,-602.8828 170.6185,-593.1764 170.6185,-584.1817"/>
<polygon fill="#000000" stroke="#000000" points="170.6185,-574.0904 175.1186,-584.0903 170.6185,-579.0904 170.6186,-584.0904 170.6186,-584.0904 170.6186,-584.0904 170.6185,-579.0904 166.1186,-584.0904 170.6185,-574.0904 170.6185,-574.0904"/>
</g>
<!-- A8 -->
<g id="node9" class="node">
<title>A8</title>
<polygon fill="none" stroke="#000000" points="64.6185,-501 46.6185,-483 64.6185,-465 82.6185,-483 64.6185,-501"/>
</g>
<!-- A7&#45;&gt;A8 -->
<g id="edge9" class="edge">
<title>A7&#45;&gt;A8</title>
<path fill="none" stroke="#000000" d="M144.4162,-537.9551C125.6905,-525.059 100.9082,-507.992 83.9597,-496.3199"/>
<polygon fill="#000000" stroke="#000000" points="75.438,-490.4512 86.2263,-492.4169 79.556,-493.2871 83.6739,-496.1231 83.6739,-496.1231 83.6739,-496.1231 79.556,-493.2871 81.1215,-499.8292 75.438,-490.4512 75.438,-490.4512"/>
</g>
<!-- A9 -->
<g id="node10" class="node">
<title>A9</title>
<path fill="none" stroke="#000000" d="M78.3988,-249C78.3988,-249 16.8382,-249 16.8382,-249 10.8382,-249 4.8382,-243 4.8382,-237 4.8382,-237 4.8382,-225 4.8382,-225 4.8382,-219 10.8382,-213 16.8382,-213 16.8382,-213 78.3988,-213 78.3988,-213 84.3988,-213 90.3988,-219 90.3988,-225 90.3988,-225 90.3988,-237 90.3988,-237 90.3988,-243 84.3988,-249 78.3988,-249"/>
<text text-anchor="middle" x="47.6185" y="-228" font-family="Helvetica,sans-Serif" font-size="10.00" fill="#000000">Pesan Driver</text>
</g>
<!-- A8&#45;&gt;A9 -->
<g id="edge10" class="edge">
<title>A8&#45;&gt;A9</title>
<path fill="none" stroke="#000000" d="M59.4933,-469.9517C51.2528,-448.1962 35.4061,-402.9525 29.7135,-363 24.616,-327.2243 32.4122,-285.9436 39.261,-259.2069"/>
<polygon fill="#000000" stroke="#000000" points="41.906,-249.3753 43.6535,-260.2011 40.607,-254.2037 39.308,-259.032 39.308,-259.032 39.308,-259.032 40.607,-254.2037 34.9625,-257.8629 41.906,-249.3753 41.906,-249.3753"/>
<text text-anchor="middle" x="92.571" y="-354" font-family="Helvetica,sans-Serif" font-size="10.00" fill="#000000">[Memilih Pembayaran tunai]</text>
</g>
<!-- A10 -->
<g id="node11" class="node">
<title>A10</title>
<path fill="none" stroke="#000000" d="M197.97,-417C197.97,-417 95.267,-417 95.267,-417 89.267,-417 83.267,-411 83.267,-405 83.267,-405 83.267,-393 83.267,-393 83.267,-387 89.267,-381 95.267,-381 95.267,-381 197.97,-381 197.97,-381 203.97,-381 209.97,-387 209.97,-393 209.97,-393 209.97,-405 209.97,-405 209.97,-411 203.97,-417 197.97,-417"/>
<text text-anchor="middle" x="146.6185" y="-396" font-family="Helvetica,sans-Serif" font-size="10.00" fill="#000000">Validasi Jumlah Saldo</text>
</g>
<!-- A8&#45;&gt;A10 -->
<g id="edge11" class="edge">
<title>A8&#45;&gt;A10</title>
<path fill="none" stroke="#000000" d="M61.0979,-468.3487C59.5124,-458.1589 59.228,-444.7141 65.6945,-435 68.6541,-430.554 72.3004,-426.6517 76.3925,-423.2274"/>
<polygon fill="#000000" stroke="#000000" points="84.748,-417.2144 79.2598,-426.7081 80.6896,-420.135 76.6313,-423.0556 76.6313,-423.0556 76.6313,-423.0556 80.6896,-420.135 74.0027,-419.4031 84.748,-417.2144 84.748,-417.2144"/>
<text text-anchor="middle" x="161.0805" y="-438" font-family="Helvetica,sans-Serif" font-size="10.00" fill="#000000">[Memilih Pembayaran Dengan Saldo Ojek]</text>
</g>
<!-- A12 -->
<g id="node13" class="node">
<title>A12</title>
<path fill="none" stroke="#000000" d="M65.8419,-176C65.8419,-176 29.3951,-176 29.3951,-176 23.3951,-176 17.3951,-170 17.3951,-164 17.3951,-164 17.3951,-152 17.3951,-152 17.3951,-146 23.3951,-140 29.3951,-140 29.3951,-140 65.8419,-140 65.8419,-140 71.8419,-140 77.8419,-146 77.8419,-152 77.8419,-152 77.8419,-164 77.8419,-164 77.8419,-170 71.8419,-176 65.8419,-176"/>
<text text-anchor="middle" x="47.6185" y="-155" font-family="Helvetica,sans-Serif" font-size="10.00" fill="#000000">Diantar</text>
</g>
<!-- A9&#45;&gt;A12 -->
<g id="edge15" class="edge">
<title>A9&#45;&gt;A12</title>
<path fill="none" stroke="#000000" d="M47.6185,-212.9551C47.6185,-204.8828 47.6185,-195.1764 47.6185,-186.1817"/>
<polygon fill="#000000" stroke="#000000" points="47.6185,-176.0904 52.1186,-186.0903 47.6185,-181.0904 47.6186,-186.0904 47.6186,-186.0904 47.6186,-186.0904 47.6185,-181.0904 43.1186,-186.0904 47.6185,-176.0904 47.6185,-176.0904"/>
</g>
<!-- A11 -->
<g id="node12" class="node">
<title>A11</title>
<polygon fill="none" stroke="#000000" points="170.6185,-333 152.6185,-315 170.6185,-297 188.6185,-315 170.6185,-333"/>
</g>
<!-- A10&#45;&gt;A11 -->
<g id="edge12" class="edge">
<title>A10&#45;&gt;A11</title>
<path fill="none" stroke="#000000" d="M151.8261,-380.7733C155.3289,-368.5134 159.9831,-352.2241 163.7832,-338.9235"/>
<polygon fill="#000000" stroke="#000000" points="166.6095,-329.0316 168.189,-339.8831 165.2358,-333.8392 163.8622,-338.6469 163.8622,-338.6469 163.8622,-338.6469 165.2358,-333.8392 159.5353,-337.4106 166.6095,-329.0316 166.6095,-329.0316"/>
</g>
<!-- A11&#45;&gt;A7 -->
<g id="edge13" class="edge">
<title>A11&#45;&gt;A7</title>
<path fill="none" stroke="#000000" d="M179.9181,-323.824C198.6087,-342.2966 240.1747,-387.2952 254.6185,-435 266.0172,-472.6473 233.3929,-508.737 205.5326,-531.5496"/>
<polygon fill="#000000" stroke="#000000" points="197.4682,-537.9059 202.5363,-528.1814 201.3951,-534.8108 205.322,-531.7156 205.322,-531.7156 205.322,-531.7156 201.3951,-534.8108 208.1076,-535.2498 197.4682,-537.9059 197.4682,-537.9059"/>
<text text-anchor="middle" x="301.63" y="-438" font-family="Helvetica,sans-Serif" font-size="10.00" fill="#000000">[Saldo Tidak Cukup]</text>
</g>
<!-- A11&#45;&gt;A9 -->
<g id="edge14" class="edge">
<title>A11&#45;&gt;A9</title>
<path fill="none" stroke="#000000" d="M159.7031,-307.5456C142.5884,-295.8575 108.7043,-272.7171 82.6512,-254.9247"/>
<polygon fill="#000000" stroke="#000000" points="74.1515,-249.1201 84.9474,-251.0437 78.2805,-251.9399 82.4095,-254.7598 82.4095,-254.7598 82.4095,-254.7598 78.2805,-251.9399 79.8717,-258.4759 74.1515,-249.1201 74.1515,-249.1201"/>
<text text-anchor="middle" x="148.0175" y="-270" font-family="Helvetica,sans-Serif" font-size="10.00" fill="#000000">[Saldo Cukup]</text>
</g>
<!-- A13 -->
<g id="node14" class="node">
<title>A13</title>
<path fill="none" stroke="#000000" d="M83.3558,-103C83.3558,-103 11.8812,-103 11.8812,-103 5.8812,-103 -.1188,-97 -.1188,-91 -.1188,-91 -.1188,-79 -.1188,-79 -.1188,-73 5.8812,-67 11.8812,-67 11.8812,-67 83.3558,-67 83.3558,-67 89.3558,-67 95.3558,-73 95.3558,-79 95.3558,-79 95.3558,-91 95.3558,-91 95.3558,-97 89.3558,-103 83.3558,-103"/>
<text text-anchor="middle" x="47.6185" y="-82" font-family="Helvetica,sans-Serif" font-size="10.00" fill="#000000">Sampai Tujuan</text>
</g>
<!-- A12&#45;&gt;A13 -->
<g id="edge16" class="edge">
<title>A12&#45;&gt;A13</title>
<path fill="none" stroke="#000000" d="M47.6185,-139.9551C47.6185,-131.8828 47.6185,-122.1764 47.6185,-113.1817"/>
<polygon fill="#000000" stroke="#000000" points="47.6185,-103.0904 52.1186,-113.0903 47.6185,-108.0904 47.6186,-113.0904 47.6186,-113.0904 47.6186,-113.0904 47.6185,-108.0904 43.1186,-113.0904 47.6185,-103.0904 47.6185,-103.0904"/>
</g>
<!-- A14 -->
<g id="node15" class="node">
<title>A14</title>
<ellipse fill="none" stroke="#000000" cx="47.6185" cy="-15" rx="11" ry="11"/>
<ellipse fill="none" stroke="#000000" cx="47.6185" cy="-15" rx="15" ry="15"/>
</g>
<!-- A13&#45;&gt;A14 -->
<g id="edge17" class="edge">
<title>A13&#45;&gt;A14</title>
<path fill="none" stroke="#000000" d="M47.6185,-66.9733C47.6185,-58.9095 47.6185,-49.2597 47.6185,-40.4761"/>
<polygon fill="#000000" stroke="#000000" points="47.6185,-30.3564 52.1186,-40.3563 47.6185,-35.3564 47.6186,-40.3564 47.6186,-40.3564 47.6186,-40.3564 47.6185,-35.3564 43.1186,-40.3564 47.6185,-30.3564 47.6185,-30.3564"/>
</g>
</g>
</svg>
