<?xml version="1.0" encoding="UTF-8" standalone="no"?>
<!DOCTYPE svg PUBLIC "-//W3C//DTD SVG 1.1//EN"
 "http://www.w3.org/Graphics/SVG/1.1/DTD/svg11.dtd">
<!-- Generated by graphviz version 2.40.1 (20161225.0304)
 -->
<!-- Title: G Pages: 1 -->
<svg width="524pt" height="476pt"
 viewBox="0.00 0.00 523.76 476.00" xmlns="http://www.w3.org/2000/svg" xmlns:xlink="http://www.w3.org/1999/xlink">
<g id="graph0" class="graph" transform="scale(1 1) rotate(0) translate(4 472)">
<title>G</title>
<polygon fill="#ffffff" stroke="transparent" points="-4,4 -4,-472 519.7647,-472 519.7647,4 -4,4"/>
<!-- A0 -->
<g id="node1" class="node">
<title>A0</title>
<g transform="translate(42.612,-177)" style="fill:none;stroke:black;stroke-width:1px"><circle cx="0" cy="-20" r="7.5" />
                <line x1="0" y1="-12.5" x2="0" y2="5" />
                <line x1="-15" y1="-5" x2="15" y2="-5" />
                <line x1="0" y1="5" x2="-15" y2="17" />
                <line x1="0" y1="5" x2="15" y2="17" /></g>
<text text-anchor="middle" x="42.612" y="-152" font-family="Helvetica,sans-Serif" font-size="10.00" fill="#000000">User</text>
</g>
<!-- A1 -->
<g id="node2" class="node">
<title>A1</title>
<ellipse fill="none" stroke="#000000" cx="207.8584" cy="-72" rx="31.5864" ry="18"/>
<text text-anchor="middle" x="207.8584" y="-69" font-family="Helvetica,sans-Serif" font-size="10.00" fill="#000000">Login</text>
</g>
<!-- A0&#45;&gt;A1 -->
<g id="edge1" class="edge">
<title>A0&#45;&gt;A1</title>
<path fill="none" stroke="#000000" d="M78.5147,-143.6315C95.0365,-128.3536 115.5399,-111.3108 136.224,-99 149.7005,-90.979 165.973,-84.6158 179.6008,-80.0864"/>
</g>
<!-- A2 -->
<g id="node3" class="node">
<title>A2</title>
<ellipse fill="none" stroke="#000000" cx="207.8584" cy="-18" rx="68.0945" ry="18"/>
<text text-anchor="middle" x="207.8584" y="-15" font-family="Helvetica,sans-Serif" font-size="10.00" fill="#000000">Menampilkan_Peta</text>
</g>
<!-- A0&#45;&gt;A2 -->
<g id="edge2" class="edge">
<title>A0&#45;&gt;A2</title>
<path fill="none" stroke="#000000" d="M59.8006,-143.8661C75.7996,-113.6978 102.2671,-71.489 136.224,-45 143.4547,-39.3595 151.9916,-34.7981 160.6054,-31.1439"/>
</g>
<!-- A3 -->
<g id="node4" class="node">
<title>A3</title>
<ellipse fill="none" stroke="#000000" cx="207.8584" cy="-126" rx="33.7664" ry="18"/>
<text text-anchor="middle" x="207.8584" y="-123" font-family="Helvetica,sans-Serif" font-size="10.00" fill="#000000">Pesan</text>
</g>
<!-- A0&#45;&gt;A3 -->
<g id="edge3" class="edge">
<title>A0&#45;&gt;A3</title>
<path fill="none" stroke="#000000" d="M82.6135,-166.9281C112.3196,-157.2206 152.1479,-144.2053 178.8412,-135.4824"/>
</g>
<!-- A6 -->
<g id="node7" class="node">
<title>A6</title>
<ellipse fill="none" stroke="#000000" cx="207.8584" cy="-180" rx="71.769" ry="18"/>
<text text-anchor="middle" x="207.8584" y="-177" font-family="Helvetica,sans-Serif" font-size="10.00" fill="#000000">Order_Dilaksanakan</text>
</g>
<!-- A0&#45;&gt;A6 -->
<g id="edge6" class="edge">
<title>A0&#45;&gt;A6</title>
<path fill="none" stroke="#000000" d="M82.6135,-180C98.6605,-180 117.6613,-180 135.9497,-180"/>
</g>
<!-- A7 -->
<g id="node8" class="node">
<title>A7</title>
<ellipse fill="none" stroke="#000000" cx="207.8584" cy="-234" rx="63.0535" ry="18"/>
<text text-anchor="middle" x="207.8584" y="-231" font-family="Helvetica,sans-Serif" font-size="10.00" fill="#000000">Pencarian_Driver</text>
</g>
<!-- A0&#45;&gt;A7 -->
<g id="edge7" class="edge">
<title>A0&#45;&gt;A7</title>
<path fill="none" stroke="#000000" d="M82.6135,-193.0719C107.9258,-201.3435 140.5874,-212.0169 166.2097,-220.3899"/>
</g>
<!-- A10 -->
<g id="node11" class="node">
<title>A10</title>
<ellipse fill="none" stroke="#000000" cx="207.8584" cy="-288" rx="36.43" ry="18"/>
<text text-anchor="middle" x="207.8584" y="-285" font-family="Helvetica,sans-Serif" font-size="10.00" fill="#000000">Diantar</text>
</g>
<!-- A0&#45;&gt;A10 -->
<g id="edge10" class="edge">
<title>A0&#45;&gt;A10</title>
<path fill="none" stroke="#000000" d="M78.5147,-216.3685C95.0365,-231.6464 115.5399,-248.6892 136.224,-261 148.6726,-268.4092 163.5071,-274.4039 176.4388,-278.8453"/>
</g>
<!-- A11 -->
<g id="node12" class="node">
<title>A11</title>
<ellipse fill="none" stroke="#000000" cx="207.8584" cy="-342" rx="58.8827" ry="18"/>
<text text-anchor="middle" x="207.8584" y="-339" font-family="Helvetica,sans-Serif" font-size="10.00" fill="#000000">Sampai_Tujuan</text>
</g>
<!-- A0&#45;&gt;A11 -->
<g id="edge11" class="edge">
<title>A0&#45;&gt;A11</title>
<path fill="none" stroke="#000000" d="M59.8006,-216.1339C75.7996,-246.3022 102.2671,-288.511 136.224,-315 144.293,-321.2945 153.9888,-326.2451 163.6026,-330.0908"/>
</g>
<!-- A4 -->
<g id="node5" class="node">
<title>A4</title>
<ellipse fill="none" stroke="#000000" cx="450.1437" cy="-153" rx="65.7422" ry="18"/>
<text text-anchor="middle" x="450.1437" y="-150" font-family="Helvetica,sans-Serif" font-size="10.00" fill="#000000">Pilih_Pembayaran</text>
</g>
<!-- A3&#45;&gt;A4 -->
<g id="edge4" class="edge">
<title>A3&#45;&gt;A4</title>
<path fill="none" stroke="#000000" stroke-dasharray="5,2" d="M241.0391,-129.6976C276.3423,-133.6318 333.2688,-139.9756 378.8175,-145.0515"/>
<polygon fill="#000000" stroke="#000000" points="388.9425,-146.1798 378.5056,-149.5445 383.9733,-145.626 379.0041,-145.0722 379.0041,-145.0722 379.0041,-145.0722 383.9733,-145.626 379.5025,-140.5999 388.9425,-146.1798 388.9425,-146.1798"/>
<text text-anchor="middle" x="332.0077" y="-146" font-family="Helvetica,sans-Serif" font-size="10.00" fill="#000000">&lt;&lt;include&gt;&gt;</text>
</g>
<!-- A5 -->
<g id="node6" class="node">
<title>A5</title>
<ellipse fill="none" stroke="#000000" cx="450.1437" cy="-99" rx="64.7482" ry="18"/>
<text text-anchor="middle" x="450.1437" y="-96" font-family="Helvetica,sans-Serif" font-size="10.00" fill="#000000">Tambahkan_Rute</text>
</g>
<!-- A3&#45;&gt;A5 -->
<g id="edge5" class="edge">
<title>A3&#45;&gt;A5</title>
<path fill="none" stroke="#000000" stroke-dasharray="5,2" d="M241.0391,-122.3024C276.5833,-118.3414 334.047,-111.9377 379.7486,-106.8447"/>
<polygon fill="#000000" stroke="#000000" points="389.9015,-105.7133 380.4614,-111.2933 384.9323,-106.2671 379.963,-106.8209 379.963,-106.8209 379.963,-106.8209 384.9323,-106.2671 379.4646,-102.3486 389.9015,-105.7133 389.9015,-105.7133"/>
<text text-anchor="middle" x="332.0077" y="-118" font-family="Helvetica,sans-Serif" font-size="10.00" fill="#000000">&lt;&lt;include&gt;&gt;</text>
</g>
<!-- A8 -->
<g id="node9" class="node">
<title>A8</title>
<ellipse fill="none" stroke="#000000" cx="450.1437" cy="-334" rx="53.8548" ry="18"/>
<text text-anchor="middle" x="450.1437" y="-331" font-family="Helvetica,sans-Serif" font-size="10.00" fill="#000000">Sesuai_Order</text>
</g>
<!-- A7&#45;&gt;A8 -->
<g id="edge8" class="edge">
<title>A7&#45;&gt;A8</title>
<path fill="none" stroke="#000000" stroke-dasharray="5,2" d="M246.6424,-248.2646C257.3242,-252.2894 268.8881,-256.7357 279.4927,-261 323.7639,-278.8023 373.9161,-300.4343 408.3336,-315.5092"/>
<polygon fill="#000000" stroke="#000000" points="417.6059,-319.5786 406.6404,-319.6804 413.0274,-317.5692 408.4489,-315.5598 408.4489,-315.5598 408.4489,-315.5598 413.0274,-317.5692 410.2574,-311.4391 417.6059,-319.5786 417.6059,-319.5786"/>
<text text-anchor="middle" x="332.0077" y="-297" font-family="Helvetica,sans-Serif" font-size="10.00" fill="#000000">&lt;&lt;include&gt;&gt;</text>
</g>
<!-- A9 -->
<g id="node10" class="node">
<title>A9</title>
<ellipse fill="none" stroke="#000000" cx="207.8584" cy="-396" rx="68.0945" ry="18"/>
<text text-anchor="middle" x="207.8584" y="-393" font-family="Helvetica,sans-Serif" font-size="10.00" fill="#000000">Penjemputan_User</text>
</g>
<!-- A9&#45;&gt;A8 -->
<g id="edge9" class="edge">
<title>A9&#45;&gt;A8</title>
<path fill="none" stroke="#000000" stroke-dasharray="5,2" d="M249.2089,-381.622C259.242,-377.8038 269.8526,-373.4851 279.4927,-369 291.0389,-363.6281 292.4322,-359.0885 304.4927,-355 330.659,-346.1297 360.7101,-341.0061 386.6943,-338.0468"/>
<polygon fill="#000000" stroke="#000000" points="396.8084,-336.979 387.3362,-342.5041 391.8361,-337.504 386.8637,-338.029 386.8637,-338.029 386.8637,-338.029 391.8361,-337.504 386.3912,-333.5538 396.8084,-336.979 396.8084,-336.979"/>
<text text-anchor="middle" x="332.0077" y="-358" font-family="Helvetica,sans-Serif" font-size="10.00" fill="#000000">&lt;&lt;include&gt;&gt;</text>
</g>
<!-- A14 -->
<g id="node15" class="node">
<title>A14</title>
<ellipse fill="none" stroke="#000000" cx="450.1437" cy="-400" rx="50.8547" ry="18"/>
<text text-anchor="middle" x="450.1437" y="-397" font-family="Helvetica,sans-Serif" font-size="10.00" fill="#000000">Sesuai_Peta</text>
</g>
<!-- A10&#45;&gt;A14 -->
<g id="edge14" class="edge">
<title>A10&#45;&gt;A14</title>
<path fill="none" stroke="#000000" stroke-dasharray="5,2" d="M241.3886,-294.9172C254.5046,-298.9847 268.9079,-305.305 279.4927,-315 298.4027,-332.3203 284.4365,-351.0211 304.4927,-367 328.2424,-385.9215 360.7458,-394.437 389.0228,-398.1076"/>
<polygon fill="#000000" stroke="#000000" points="399.2254,-399.251 388.7864,-402.6092 394.2565,-398.6941 389.2876,-398.1372 389.2876,-398.1372 389.2876,-398.1372 394.2565,-398.6941 389.7888,-393.6652 399.2254,-399.251 399.2254,-399.251"/>
<text text-anchor="middle" x="332.0077" y="-395" font-family="Helvetica,sans-Serif" font-size="10.00" fill="#000000">&lt;&lt;include&gt;&gt;</text>
</g>
<!-- A12 -->
<g id="node13" class="node">
<title>A12</title>
<g transform="translate(42.612,-393)" style="fill:none;stroke:black;stroke-width:1px"><circle cx="0" cy="-20" r="7.5" />
                <line x1="0" y1="-12.5" x2="0" y2="5" />
                <line x1="-15" y1="-5" x2="15" y2="-5" />
                <line x1="0" y1="5" x2="-15" y2="17" />
                <line x1="0" y1="5" x2="15" y2="17" /></g>
<text text-anchor="middle" x="42.612" y="-368" font-family="Helvetica,sans-Serif" font-size="10.00" fill="#000000">Driver</text>
</g>
<!-- A12&#45;&gt;A9 -->
<g id="edge12" class="edge">
<title>A12&#45;&gt;A9</title>
<path fill="none" stroke="#000000" d="M85.5972,-396C102.0452,-396 121.2399,-396 139.4796,-396"/>
</g>
<!-- A12&#45;&gt;A11 -->
<g id="edge16" class="edge">
<title>A12&#45;&gt;A11</title>
<path fill="none" stroke="#000000" d="M85.5972,-381.9531C110.8431,-373.7031 142.5596,-363.3386 167.3618,-355.2336"/>
</g>
<!-- A13 -->
<g id="node14" class="node">
<title>A13</title>
<ellipse fill="none" stroke="#000000" cx="207.8584" cy="-450" rx="45.6521" ry="18"/>
<text text-anchor="middle" x="207.8584" y="-447" font-family="Helvetica,sans-Serif" font-size="10.00" fill="#000000">Mengantar</text>
</g>
<!-- A12&#45;&gt;A13 -->
<g id="edge13" class="edge">
<title>A12&#45;&gt;A13</title>
<path fill="none" stroke="#000000" d="M85.5972,-410.0469C112.66,-418.8906 147.1584,-430.1642 172.6044,-438.4796"/>
</g>
<!-- A13&#45;&gt;A14 -->
<g id="edge15" class="edge">
<title>A13&#45;&gt;A14</title>
<path fill="none" stroke="#000000" stroke-dasharray="5,2" d="M248.4115,-441.6311C288.8641,-433.283 351.2584,-420.4068 395.9417,-411.1856"/>
<polygon fill="#000000" stroke="#000000" points="405.7588,-409.1596 396.8747,-415.5879 400.862,-410.1702 395.9652,-411.1808 395.9652,-411.1808 395.9652,-411.1808 400.862,-410.1702 395.0557,-406.7737 405.7588,-409.1596 405.7588,-409.1596"/>
<text text-anchor="middle" x="332.0077" y="-432" font-family="Helvetica,sans-Serif" font-size="10.00" fill="#000000">&lt;&lt;include&gt;&gt;</text>
</g>
</g>
</svg>
