<?xml version="1.0" encoding="UTF-8" standalone="no"?>
<!DOCTYPE svg PUBLIC "-//W3C//DTD SVG 1.1//EN"
 "http://www.w3.org/Graphics/SVG/1.1/DTD/svg11.dtd">
<!-- Generated by graphviz version 2.40.1 (20161225.0304)
 -->
<!-- Title: G Pages: 1 -->
<svg width="517pt" height="476pt"
 viewBox="0.00 0.00 517.08 476.00" xmlns="http://www.w3.org/2000/svg" xmlns:xlink="http://www.w3.org/1999/xlink">
<g id="graph0" class="graph" transform="scale(1 1) rotate(0) translate(4 472)">
<title>G</title>
<polygon fill="#ffffff" stroke="transparent" points="-4,4 -4,-472 513.0778,-472 513.0778,4 -4,4"/>
<!-- A0 -->
<g id="node1" class="node">
<title>A0</title>
<g transform="translate(42.612,-177)" style="fill:none;stroke:black;stroke-width:1px"><circle cx="0" cy="-20" r="7.5" />
                <line x1="0" y1="-12.5" x2="0" y2="5" />
                <line x1="-15" y1="-5" x2="15" y2="-5" />
                <line x1="0" y1="5" x2="-15" y2="17" />
                <line x1="0" y1="5" x2="15" y2="17" /></g>
<text text-anchor="middle" x="42.612" y="-152" font-family="Helvetica,sans-Serif" font-size="10.00" fill="#000000">User</text>
</g>
<!-- A1 -->
<g id="node2" class="node">
<title>A1</title>
<ellipse fill="none" stroke="#000000" cx="206.1866" cy="-72" rx="31.5864" ry="18"/>
<text text-anchor="middle" x="206.1866" y="-69" font-family="Helvetica,sans-Serif" font-size="10.00" fill="#000000">Login</text>
</g>
<!-- A0&#45;&gt;A1 -->
<g id="edge1" class="edge">
<title>A0&#45;&gt;A1</title>
<path fill="none" stroke="#000000" d="M78.5608,-143.7086C95.0911,-128.445 115.5885,-111.3921 136.224,-99 149.1713,-91.2249 164.75,-84.9522 177.917,-80.4169"/>
</g>
<!-- A2 -->
<g id="node3" class="node">
<title>A2</title>
<ellipse fill="none" stroke="#000000" cx="206.1866" cy="-18" rx="66.7507" ry="18"/>
<text text-anchor="middle" x="206.1866" y="-15" font-family="Helvetica,sans-Serif" font-size="10.00" fill="#000000">Menampilkan Peta</text>
</g>
<!-- A0&#45;&gt;A2 -->
<g id="edge2" class="edge">
<title>A0&#45;&gt;A2</title>
<path fill="none" stroke="#000000" d="M59.8532,-143.9334C75.8853,-113.8072 102.3715,-71.6223 136.224,-45 143.3877,-39.3663 151.8648,-34.7948 160.4013,-31.1258"/>
</g>
<!-- A3 -->
<g id="node4" class="node">
<title>A3</title>
<ellipse fill="none" stroke="#000000" cx="206.1866" cy="-126" rx="33.7664" ry="18"/>
<text text-anchor="middle" x="206.1866" y="-123" font-family="Helvetica,sans-Serif" font-size="10.00" fill="#000000">Pesan</text>
</g>
<!-- A0&#45;&gt;A3 -->
<g id="edge3" class="edge">
<title>A0&#45;&gt;A3</title>
<path fill="none" stroke="#000000" d="M82.6269,-166.7901C111.9473,-157.1107 151.0586,-144.1991 177.356,-135.5177"/>
</g>
<!-- A6 -->
<g id="node7" class="node">
<title>A6</title>
<ellipse fill="none" stroke="#000000" cx="206.1866" cy="-180" rx="69.9253" ry="18"/>
<text text-anchor="middle" x="206.1866" y="-177" font-family="Helvetica,sans-Serif" font-size="10.00" fill="#000000">Order Dilaksanakan</text>
</g>
<!-- A0&#45;&gt;A6 -->
<g id="edge6" class="edge">
<title>A0&#45;&gt;A6</title>
<path fill="none" stroke="#000000" d="M82.6269,-180C98.7058,-180 117.7292,-180 135.969,-180"/>
</g>
<!-- A7 -->
<g id="node8" class="node">
<title>A7</title>
<ellipse fill="none" stroke="#000000" cx="206.1866" cy="-234" rx="61.7095" ry="18"/>
<text text-anchor="middle" x="206.1866" y="-231" font-family="Helvetica,sans-Serif" font-size="10.00" fill="#000000">Pencarian Driver</text>
</g>
<!-- A0&#45;&gt;A7 -->
<g id="edge7" class="edge">
<title>A0&#45;&gt;A7</title>
<path fill="none" stroke="#000000" d="M82.6269,-193.2099C107.6911,-201.4842 139.91,-212.1205 165.163,-220.4571"/>
</g>
<!-- A10 -->
<g id="node11" class="node">
<title>A10</title>
<ellipse fill="none" stroke="#000000" cx="206.1866" cy="-288" rx="36.43" ry="18"/>
<text text-anchor="middle" x="206.1866" y="-285" font-family="Helvetica,sans-Serif" font-size="10.00" fill="#000000">Diantar</text>
</g>
<!-- A0&#45;&gt;A10 -->
<g id="edge10" class="edge">
<title>A0&#45;&gt;A10</title>
<path fill="none" stroke="#000000" d="M78.5608,-216.2914C95.0911,-231.555 115.5885,-248.6079 136.224,-261 148.2784,-268.2389 162.6138,-274.1754 175.1601,-278.62"/>
</g>
<!-- A11 -->
<g id="node12" class="node">
<title>A11</title>
<ellipse fill="none" stroke="#000000" cx="206.1866" cy="-342" rx="57.0401" ry="18"/>
<text text-anchor="middle" x="206.1866" y="-339" font-family="Helvetica,sans-Serif" font-size="10.00" fill="#000000">Sampai Tujuan</text>
</g>
<!-- A0&#45;&gt;A11 -->
<g id="edge11" class="edge">
<title>A0&#45;&gt;A11</title>
<path fill="none" stroke="#000000" d="M59.8532,-216.0666C75.8853,-246.1928 102.3715,-288.3777 136.224,-315 144.1041,-321.1971 153.5733,-326.1089 162.9628,-329.9479"/>
</g>
<!-- A4 -->
<g id="node5" class="node">
<title>A4</title>
<ellipse fill="none" stroke="#000000" cx="445.1286" cy="-153" rx="63.8986" ry="18"/>
<text text-anchor="middle" x="445.1286" y="-150" font-family="Helvetica,sans-Serif" font-size="10.00" fill="#000000">Pilih Pembayaran</text>
</g>
<!-- A3&#45;&gt;A4 -->
<g id="edge4" class="edge">
<title>A3&#45;&gt;A4</title>
<path fill="none" stroke="#000000" stroke-dasharray="5,2" d="M239.4105,-129.7542C274.4599,-133.7147 330.7149,-140.0715 375.5459,-145.1373"/>
<polygon fill="#000000" stroke="#000000" points="385.5075,-146.2629 375.0654,-149.6115 380.5391,-145.7015 375.5707,-145.14 375.5707,-145.14 375.5707,-145.14 380.5391,-145.7015 376.076,-140.6685 385.5075,-146.2629 385.5075,-146.2629"/>
<text text-anchor="middle" x="328.6643" y="-146" font-family="Helvetica,sans-Serif" font-size="10.00" fill="#000000">&lt;&lt;include&gt;&gt;</text>
</g>
<!-- A5 -->
<g id="node6" class="node">
<title>A5</title>
<ellipse fill="none" stroke="#000000" cx="445.1286" cy="-99" rx="62.9045" ry="18"/>
<text text-anchor="middle" x="445.1286" y="-96" font-family="Helvetica,sans-Serif" font-size="10.00" fill="#000000">Tambahkan Rute</text>
</g>
<!-- A3&#45;&gt;A5 -->
<g id="edge5" class="edge">
<title>A3&#45;&gt;A5</title>
<path fill="none" stroke="#000000" stroke-dasharray="5,2" d="M239.4105,-122.2458C274.6983,-118.2583 331.4813,-111.8419 376.4592,-106.7595"/>
<polygon fill="#000000" stroke="#000000" points="386.4473,-105.6309 377.0159,-111.2253 381.4789,-106.1923 376.5106,-106.7538 376.5106,-106.7538 376.5106,-106.7538 381.4789,-106.1923 376.0052,-102.2823 386.4473,-105.6309 386.4473,-105.6309"/>
<text text-anchor="middle" x="328.6643" y="-118" font-family="Helvetica,sans-Serif" font-size="10.00" fill="#000000">&lt;&lt;include&gt;&gt;</text>
</g>
<!-- A8 -->
<g id="node9" class="node">
<title>A8</title>
<ellipse fill="none" stroke="#000000" cx="445.1286" cy="-334" rx="52.0124" ry="18"/>
<text text-anchor="middle" x="445.1286" y="-331" font-family="Helvetica,sans-Serif" font-size="10.00" fill="#000000">Sesuai Order</text>
</g>
<!-- A7&#45;&gt;A8 -->
<g id="edge8" class="edge">
<title>A7&#45;&gt;A8</title>
<path fill="none" stroke="#000000" stroke-dasharray="5,2" d="M244.0562,-248.3012C254.4888,-252.3261 265.7851,-256.7634 276.1493,-261 319.9525,-278.9057 369.6188,-300.5215 403.7097,-315.5643"/>
<polygon fill="#000000" stroke="#000000" points="412.8943,-319.6244 401.9286,-319.697 408.3212,-317.6028 403.748,-315.5812 403.748,-315.5812 403.748,-315.5812 408.3212,-317.6028 405.5675,-311.4654 412.8943,-319.6244 412.8943,-319.6244"/>
<text text-anchor="middle" x="328.6643" y="-297" font-family="Helvetica,sans-Serif" font-size="10.00" fill="#000000">&lt;&lt;include&gt;&gt;</text>
</g>
<!-- A9 -->
<g id="node10" class="node">
<title>A9</title>
<ellipse fill="none" stroke="#000000" cx="206.1866" cy="-396" rx="66.7507" ry="18"/>
<text text-anchor="middle" x="206.1866" y="-393" font-family="Helvetica,sans-Serif" font-size="10.00" fill="#000000">Penjemputan User</text>
</g>
<!-- A9&#45;&gt;A8 -->
<g id="edge9" class="edge">
<title>A9&#45;&gt;A8</title>
<path fill="none" stroke="#000000" stroke-dasharray="5,2" d="M246.5566,-381.5448C256.3561,-377.729 266.7232,-373.4307 276.1493,-369 287.6743,-363.5827 289.0921,-359.0984 301.1493,-355 327.3309,-346.1005 357.4483,-340.9722 383.3481,-338.0171"/>
<polygon fill="#000000" stroke="#000000" points="393.4202,-336.9515 383.9492,-342.4788 388.4479,-337.4776 383.4757,-338.0037 383.4757,-338.0037 383.4757,-338.0037 388.4479,-337.4776 383.0022,-333.5287 393.4202,-336.9515 393.4202,-336.9515"/>
<text text-anchor="middle" x="328.6643" y="-358" font-family="Helvetica,sans-Serif" font-size="10.00" fill="#000000">&lt;&lt;include&gt;&gt;</text>
</g>
<!-- A14 -->
<g id="node15" class="node">
<title>A14</title>
<ellipse fill="none" stroke="#000000" cx="445.1286" cy="-400" rx="49.0124" ry="18"/>
<text text-anchor="middle" x="445.1286" y="-397" font-family="Helvetica,sans-Serif" font-size="10.00" fill="#000000">Sesuai Peta</text>
</g>
<!-- A10&#45;&gt;A14 -->
<g id="edge14" class="edge">
<title>A10&#45;&gt;A14</title>
<path fill="none" stroke="#000000" stroke-dasharray="5,2" d="M239.6538,-295.3044C252.2714,-299.4007 266.0092,-305.6387 276.1493,-315 294.991,-332.3945 281.113,-350.996 301.1493,-367 324.884,-385.9582 357.48,-394.4374 385.6553,-398.0762"/>
<polygon fill="#000000" stroke="#000000" points="395.8111,-399.2082 385.3741,-402.5726 390.8418,-398.6542 385.8726,-398.1003 385.8726,-398.1003 385.8726,-398.1003 390.8418,-398.6542 386.3712,-393.628 395.8111,-399.2082 395.8111,-399.2082"/>
<text text-anchor="middle" x="328.6643" y="-395" font-family="Helvetica,sans-Serif" font-size="10.00" fill="#000000">&lt;&lt;include&gt;&gt;</text>
</g>
<!-- A12 -->
<g id="node13" class="node">
<title>A12</title>
<g transform="translate(42.612,-393)" style="fill:none;stroke:black;stroke-width:1px"><circle cx="0" cy="-20" r="7.5" />
                <line x1="0" y1="-12.5" x2="0" y2="5" />
                <line x1="-15" y1="-5" x2="15" y2="-5" />
                <line x1="0" y1="5" x2="-15" y2="17" />
                <line x1="0" y1="5" x2="15" y2="17" /></g>
<text text-anchor="middle" x="42.612" y="-368" font-family="Helvetica,sans-Serif" font-size="10.00" fill="#000000">Driver</text>
</g>
<!-- A12&#45;&gt;A9 -->
<g id="edge12" class="edge">
<title>A12&#45;&gt;A9</title>
<path fill="none" stroke="#000000" d="M85.5893,-396C102.0596,-396 121.2635,-396 139.4408,-396"/>
</g>
<!-- A12&#45;&gt;A11 -->
<g id="edge16" class="edge">
<title>A12&#45;&gt;A11</title>
<path fill="none" stroke="#000000" d="M85.5893,-381.8121C110.6734,-373.5313 142.098,-363.1572 166.58,-355.0751"/>
</g>
<!-- A13 -->
<g id="node14" class="node">
<title>A13</title>
<ellipse fill="none" stroke="#000000" cx="206.1866" cy="-450" rx="45.6521" ry="18"/>
<text text-anchor="middle" x="206.1866" y="-447" font-family="Helvetica,sans-Serif" font-size="10.00" fill="#000000">Mengantar</text>
</g>
<!-- A12&#45;&gt;A13 -->
<g id="edge13" class="edge">
<title>A12&#45;&gt;A13</title>
<path fill="none" stroke="#000000" d="M85.5893,-410.1879C112.2826,-419 146.1559,-430.1824 171.2024,-438.4508"/>
</g>
<!-- A13&#45;&gt;A14 -->
<g id="edge15" class="edge">
<title>A13&#45;&gt;A14</title>
<path fill="none" stroke="#000000" stroke-dasharray="5,2" d="M246.7199,-441.5182C286.8655,-433.1175 348.5354,-420.2127 392.4563,-411.022"/>
<polygon fill="#000000" stroke="#000000" points="402.3782,-408.9458 393.512,-415.3986 397.4842,-409.9699 392.5902,-410.994 392.5902,-410.994 392.5902,-410.994 397.4842,-409.9699 391.6685,-406.5894 402.3782,-408.9458 402.3782,-408.9458"/>
<text text-anchor="middle" x="328.6643" y="-432" font-family="Helvetica,sans-Serif" font-size="10.00" fill="#000000">&lt;&lt;include&gt;&gt;</text>
</g>
</g>
</svg>
